<?xml version="1.0" encoding="utf-8"?>
<!-- Generator: Adobe Illustrator 19.2.1, SVG Export Plug-In . SVG Version: 6.00 Build 0)  -->
<svg version="1.1" id="Vrstva_1" xmlns="http://www.w3.org/2000/svg" xmlns:xlink="http://www.w3.org/1999/xlink" x="0px" y="0px"
	 width="1792px" height="1536px" viewBox="0 0 1792 1536" style="enable-background:new 0 0 1792 1536;" xml:space="preserve">
<path fill="#999999" d="M640,256h512V128H640V256z M1792,896v480c0,44-15.7,81.7-47,113s-69,47-113,47H160c-44,0-81.7-15.7-113-47s-47-69-47-113
	V896h672v160c0,17.3,6.3,32.3,19,45s27.7,19,45,19h320c17.3,0,32.3-6.3,45-19s19-27.7,19-45V896H1792z M1024,896v128H768V896H1024z
	 M1792,416v384H0V416c0-44,15.7-81.7,47-113s69-47,113-47h352V96c0-26.7,9.3-49.3,28-68s41.3-28,68-28h576c26.7,0,49.3,9.3,68,28
	s28,41.3,28,68v160h352c44,0,81.7,15.7,113,47S1792,372,1792,416z"/>
</svg>
