<?xml version="1.0" encoding="utf-8"?>
<!-- Generator: Adobe Illustrator 19.2.1, SVG Export Plug-In . SVG Version: 6.00 Build 0)  -->
<svg version="1.1" id="Vrstva_1" xmlns="http://www.w3.org/2000/svg" xmlns:xlink="http://www.w3.org/1999/xlink" x="0px" y="0px"
	 width="1792px" height="1408.1px" viewBox="0 0 1792 1408.1" style="enable-background:new 0 0 1792 1408.1;" xml:space="preserve"
	>
<path fill="#999999" d="M1408,512c0,92.7-31.3,178.3-94,257s-148.2,140.8-256.5,186.5S831.3,1024,704,1024c-57.3,0-116-5.3-176-16
	c-82.7,58.7-175.3,101.3-278,128c-24,6-52.7,11.3-86,16h-3c-7.3,0-14.2-2.7-20.5-8s-10.2-12.3-11.5-21c-0.7-2-1-4.2-1-6.5
	s0.2-4.5,0.5-6.5s1-4,2-6l2.5-5l3.5-5.5l4-5l4.5-5l4-4.5c3.3-4,11-12.3,23-25s20.7-22.5,26-29.5s12.8-16.7,22.5-29s18-25.2,25-38.5
	s13.8-28,20.5-44c-82.7-48-147.7-107-195-177S0,591.3,0,512c0-92.7,31.3-178.3,94-257S242.2,114.2,350.5,68.5S576.7,0,704,0
	s245.2,22.8,353.5,68.5S1251.3,176.3,1314,255S1408,419.3,1408,512z M1792,768c0,80-23.7,154.8-71,224.5S1608.7,1121,1526,1169
	c6.7,16,13.5,30.7,20.5,44s15.3,26.2,25,38.5s17.2,22,22.5,29s14,16.8,26,29.5s19.7,21,23,25c0.7,0.7,2,2.2,4,4.5s3.5,4,4.5,5
	s2.3,2.7,4,5s2.8,4.2,3.5,5.5l2.5,5l2,6l0.5,6.5l-1,6.5c-2,9.3-6.3,16.7-13,22s-14,7.7-22,7c-33.3-4.7-62-10-86-16
	c-102.7-26.7-195.3-69.3-278-128c-60,10.7-118.7,16-176,16c-180.7,0-338-44-472-132c38.7,2.7,68,4,88,4c107.3,0,210.3-15,309-45
	s186.7-73,264-129c83.3-61.3,147.3-132,192-212s67-164.7,67-254c0-51.3-7.7-102-23-152c86,47.3,154,106.7,204,178S1792,686,1792,768
	z"/>
</svg>
