<?xml version="1.0" encoding="utf-8"?>
<!-- Generator: Adobe Illustrator 19.2.1, SVG Export Plug-In . SVG Version: 6.00 Build 0)  -->
<svg version="1.1" id="Vrstva_1" xmlns="http://www.w3.org/2000/svg" xmlns:xlink="http://www.w3.org/1999/xlink" x="0px" y="0px"
	 width="1920px" height="1792px" viewBox="0 0 1920 1792" style="enable-background:new 0 0 1920 1792;" xml:space="preserve">
<path d="M593,896c-108,3.3-196.3,46-265,128H194c-54.7,0-100.7-13.5-138-40.5S0,917,0,865c0-235.3,41.3-353,124-353
	c4,0,18.5,7,43.5,21s57.5,28.2,97.5,42.5S344.7,597,384,597c44.7,0,89-7.7,133-23c-3.3,24.7-5,46.7-5,66C512,732.7,539,818,593,896z
	 M1664,1533c0,80-24.3,143.2-73,189.5s-113.3,69.5-194,69.5H523c-80.7,0-145.3-23.2-194-69.5S256,1613,256,1533
	c0-35.3,1.2-69.8,3.5-103.5s7-70,14-109s15.8-75.2,26.5-108.5s25-65.8,43-97.5s38.7-58.7,62-81c23.3-22.3,51.8-40.2,85.5-53.5
	s70.8-20,111.5-20c6.7,0,21,7.2,43,21.5s46.3,30.3,73,48c26.7,17.7,62.3,33.7,107,48s89.7,21.5,135,21.5s90.3-7.2,135-21.5
	c44.7-14.3,80.3-30.3,107-48c26.7-17.7,51-33.7,73-48s36.3-21.5,43-21.5c40.7,0,77.8,6.7,111.5,20s62.2,31.2,85.5,53.5
	c23.3,22.3,44,49.3,62,81s32.3,64.2,43,97.5s19.5,69.5,26.5,108.5s11.7,75.3,14,109S1664,1497.7,1664,1533z M640,256
	c0,70.7-25,131-75,181s-110.3,75-181,75s-131-25-181-75s-75-110.3-75-181s25-131,75-181S313.3,0,384,0s131,25,181,75
	S640,185.3,640,256z M1344,640c0,106-37.5,196.5-112.5,271.5S1066,1024,960,1024s-196.5-37.5-271.5-112.5S576,746,576,640
	s37.5-196.5,112.5-271.5S854,256,960,256s196.5,37.5,271.5,112.5S1344,534,1344,640z M1920,865c0,52-18.7,91.5-56,118.5
	s-83.3,40.5-138,40.5h-134c-68.7-82-157-124.7-265-128c54-78,81-163.3,81-256c0-19.3-1.7-41.3-5-66c44,15.3,88.3,23,133,23
	c39.3,0,79-7.2,119-21.5s72.5-28.5,97.5-42.5s39.5-21,43.5-21C1878.7,512,1920,629.7,1920,865z M1792,256c0,70.7-25,131-75,181
	s-110.3,75-181,75s-131-25-181-75s-75-110.3-75-181s25-131,75-181s110.3-75,181-75s131,25,181,75S1792,185.3,1792,256z"/>
</svg>
