<?xml version="1.0" encoding="utf-8"?>
<!-- Generator: Adobe Illustrator 19.2.1, SVG Export Plug-In . SVG Version: 6.00 Build 0)  -->
<svg version="1.1" id="Vrstva_1" xmlns="http://www.w3.org/2000/svg" xmlns:xlink="http://www.w3.org/1999/xlink" x="0px" y="0px"
	 width="28px" height="28px" viewBox="0 0 28 28" style="enable-background:new 0 0 28 28;" xml:space="preserve">
<style type="text/css">
	.st0{fill:#010101;}
</style>
<path class="st0" d="M20,14c0-0.4-0.2-0.7-0.5-0.8l-8-5c-0.3-0.2-0.7-0.2-1,0C10.2,8.3,10,8.6,10,9v10c0,0.4,0.2,0.7,0.5,0.9
	C10.7,20,10.8,20,11,20c0.2,0,0.4-0.1,0.5-0.2l8-5C19.8,14.7,20,14.4,20,14z M28,14c0,1,0,1.8,0,2.3s-0.1,1.3-0.1,2.1
	s-0.2,1.6-0.4,2.3c-0.2,0.8-0.5,1.4-1.1,1.9s-1.2,0.8-1.9,0.9C22.2,23.9,18.7,24,14,24s-8.2-0.1-10.5-0.4c-0.7-0.1-1.4-0.4-1.9-0.9
	s-0.9-1.2-1.1-1.9c-0.1-0.7-0.3-1.4-0.3-2.3S0,16.9,0,16.3S0,15,0,14s0-1.8,0-2.3s0.1-1.3,0.1-2.1s0.2-1.6,0.4-2.3
	C0.7,6.5,1,5.8,1.6,5.3s1.2-0.8,1.9-0.9C5.8,4.1,9.3,4,14,4s8.2,0.1,10.5,0.4c0.7,0.1,1.4,0.4,1.9,0.9s0.9,1.2,1.1,1.9
	c0.1,0.7,0.3,1.4,0.3,2.3s0.1,1.6,0.1,2.1S28,13,28,14z"/>
</svg>
