<?xml version="1.0" encoding="utf-8"?>
<!-- Generator: Adobe Illustrator 15.0.0, SVG Export Plug-In . SVG Version: 6.00 Build 0)  -->
<!DOCTYPE svg PUBLIC "-//W3C//DTD SVG 1.1//EN" "http://www.w3.org/Graphics/SVG/1.1/DTD/svg11.dtd">
<svg version="1.1" id="YouTube" xmlns="http://www.w3.org/2000/svg" xmlns:xlink="http://www.w3.org/1999/xlink" x="0px" y="0px"
	 width="100px" height="100px" viewBox="0 0 100 100" enable-background="new 0 0 100 100" xml:space="preserve">
<g>
	<path fill-rule="evenodd" clip-rule="evenodd" d="M38.408,55.458c0-1.25,0-2.501,0-3.752c-3.783,0-7.566,0-11.348,0
		c-0.054,0.008-0.05,0.072-0.046,0.138c0,1.205,0,2.41,0,3.614c1.267,0.031,2.654-0.061,3.844,0.046c0,6.849,0,13.698,0,20.547
		c1.235,0,2.471,0,3.706,0c0.031-6.849-0.061-13.819,0.046-20.593C35.876,55.458,37.142,55.458,38.408,55.458z"/>
	<path fill-rule="evenodd" clip-rule="evenodd" d="M44.494,69.735c0,0.557,0.109,1.263,0,1.693
		c-0.134,0.529-1.393,1.504-2.105,1.419c-0.998-0.12-0.732-2.076-0.732-3.158c0-4.029,0-7.815,0-11.668c-1.083,0-2.166,0-3.249,0
		c-0.053,0.007-0.05,0.072-0.046,0.138c0,3.942,0,8.972,0,13.315c0,1.597-0.063,3.087,0.503,3.936
		c1.229,1.841,3.968,0.326,4.942-0.595c0.244-0.231,0.405-0.534,0.687-0.641c0,0.625,0,1.25,0,1.876c1.098,0,2.197,0,3.294,0
		c0-6.01,0-12.02,0-18.029c-1.098,0-2.196,0-3.294,0C44.494,61.72,44.494,65.962,44.494,69.735z"/>
	<g>
		<path fill-rule="evenodd" clip-rule="evenodd" d="M46.438,35.588c0,0.813-0.101,2.213,0.229,2.7
			c0.604,0.891,2.153,0.479,2.472-0.274c0.307-0.729,0.091-1.851,0.091-2.7c0-2.213,0-3.504,0-5.583
			c0-0.993,0.153-2.213-0.091-2.746c-0.254-0.551-1.104-0.738-1.647-0.641c-1.396,0.249-1.053,1.994-1.053,3.478
			C46.438,31.409,46.438,34.032,46.438,35.588z"/>
		<path fill-rule="evenodd" clip-rule="evenodd" d="M50,0C22.386,0,0,22.386,0,50c0,27.614,22.386,50,50,50s50-22.386,50-50
			C100,22.386,77.614,0,50,0z M55.407,32.935c0-3.26,0-6.391,0-9.244c0.993-0.076,2.302-0.076,3.295,0c0,2.193,0,4.537,0,6.864
			c0,2.36-0.216,4.946,0.046,6.955c0.155,1.196,1.092,1.121,1.922,0.504c0.302-0.226,0.794-0.641,0.869-0.916
			c0.111-0.406,0-1.165,0-1.693c0-3.703,0-8.129,0-11.714c0.993-0.076,2.302-0.076,3.295,0c0,5.888,0,11.775,0,17.663
			c-0.993,0.076-2.302,0.076-3.295,0c0-0.61,0-1.22,0-1.83c-0.821,0.945-3.419,3.169-5.217,1.738
			C54.902,40.132,55.407,35.47,55.407,32.935z M47.171,23.233c2.357-0.216,3.987,0.7,4.805,2.06
			c0.886,1.475,0.641,4.863,0.641,7.139c0,2.247,0.249,5.667-0.55,7.184c-1.088,2.068-4.573,3.077-6.909,1.602
			c-1.174-0.741-1.961-2.058-2.105-3.57c-0.15-1.585,0-3.461,0-5.308c0-2.67-0.311-5.446,0.503-6.91
			C44.161,24.342,45.403,23.396,47.171,23.233z M30.743,17.376c1.144-0.106,2.486-0.016,3.706-0.046
			c0.766,2.774,1.46,5.73,2.151,8.511c0.094,0.381,0.14,0.84,0.412,1.145c0.31-0.295,0.274-0.755,0.366-1.145
			c0.659-2.792,1.393-5.765,2.105-8.511c1.22,0,2.44,0,3.661,0c-1.078,3.995-2.486,8.229-3.707,12.264
			c-0.184,0.605-0.469,1.227-0.549,1.785c-0.112,0.774,0,1.691,0,2.516c0,2.568,0.038,5.012-0.045,7.504
			c-1.206-0.029-2.532,0.061-3.661-0.045c0-1.631,0-3.168,0-4.667c0-1.593,0.186-3.193,0-4.713c-0.069-0.564-0.361-1.17-0.549-1.785
			c-1.304-4.263-2.58-8.672-3.889-12.767C30.743,17.407,30.743,17.391,30.743,17.376z M77.043,73.893
			c0,4.853-3.933,8.785-8.784,8.785H31.742c-4.852,0-8.785-3.933-8.785-8.785V55.008c0-4.852,3.933-8.784,8.785-8.784h36.517
			c4.852,0,8.784,3.933,8.784,8.784V73.893z"/>
	</g>
	<path fill-rule="evenodd" clip-rule="evenodd" d="M60.464,67.447c0-2.097,0.091-4.163,0-5.628
		c-0.093-1.503-0.517-2.835-1.281-3.433c-1.126-0.879-2.784-0.653-3.798,0.046c-0.415,0.287-0.686,0.713-1.053,0.916
		c0-2.548,0-5.095,0-7.643c-1.098,0-2.196,0-3.295,0c-0.053,0.008-0.049,0.072-0.046,0.138c0,8.069,0,16.138,0,24.207
		c1.114,0,2.227,0,3.341,0c0-0.428,0-0.854,0-1.281c0.913,1.072,2.929,2.04,4.576,1.189c0.917-0.474,1.467-1.607,1.556-2.929
		C60.57,71.433,60.464,69.433,60.464,67.447z M56.574,73.351c-0.848,0.502-1.74-0.152-2.242-0.687c0-2.436,0-5.525,0-8.236
		c0-0.853-0.188-2.062,0-2.746c0.157-0.574,1.336-1.077,2.105-0.641c1.079,0.612,0.641,4.39,0.641,6.087c0,1.146,0,2.186,0,3.386
		C57.078,71.694,57.17,72.998,56.574,73.351z"/>
	<path fill-rule="evenodd" clip-rule="evenodd" d="M72.682,69.415c-1.129,0-2.258,0-3.386,0c-0.082,1.31,0.264,3.159-0.55,3.753
		c-0.329,0.24-1.008,0.391-1.602,0.137c-1.409-0.604-0.509-3.855-0.777-5.72c2.104,0,4.21,0,6.314,0
		c-0.104-2.498,0.221-4.92-0.229-6.864c-0.454-1.964-2.178-3.296-4.759-3.157c-2.411,0.129-4.284,1.829-4.622,3.936
		c-0.339,2.108-0.092,5.315-0.092,8.054c0,2.968,0.313,4.983,1.969,6.178c1.411,1.019,4.043,1.113,5.72,0.091
		C72.407,74.762,72.794,72.554,72.682,69.415z M66.688,61.407c0.388-0.552,1.502-0.647,2.059-0.229
		c0.757,0.568,0.491,2.181,0.55,3.386c-0.977,0-1.953,0-2.929,0C66.435,63.364,66.193,62.11,66.688,61.407z"/>
</g>
</svg>
