<?xml version="1.0" encoding="utf-8"?>
<!-- Generator: Adobe Illustrator 15.0.0, SVG Export Plug-In . SVG Version: 6.00 Build 0)  -->
<!DOCTYPE svg PUBLIC "-//W3C//DTD SVG 1.1//EN" "http://www.w3.org/Graphics/SVG/1.1/DTD/svg11.dtd">
<svg version="1.1" id="Layer_1" xmlns="http://www.w3.org/2000/svg" xmlns:xlink="http://www.w3.org/1999/xlink" x="0px" y="0px"
	 width="100px" height="100px" viewBox="0 0 100 100" enable-background="new 0 0 100 100" xml:space="preserve">
<path fill-rule="evenodd" clip-rule="evenodd" d="M50,0C22.386,0,0,22.386,0,50s22.386,50,50,50s50-22.386,50-50S77.614,0,50,0z
	 M76.672,36.356c0.271,9.101-2.272,16.407-5.653,22.091c-3.343,5.617-7.828,10.079-13.192,13.349
	c-5.404,3.294-12.634,5.68-21.097,5.444c-7.908-0.22-14.182-2.494-19.317-5.602c-0.321-0.194-0.715-0.352-0.942-0.681
	c8.762,1,15.524-1.932,20.259-5.601c-3.505-0.112-6.168-1.348-8.219-2.984c-2.043-1.631-3.704-3.839-4.554-6.648
	c1.784,0.432,4.385,0.318,6.02-0.156c-3.279-0.733-5.722-2.492-7.591-4.66c-1.852-2.148-3.239-5.031-3.245-8.952
	c0.112-0.17,0.385,0.114,0.575,0.21c1.452,0.729,3.359,1.302,5.497,1.414c-3.354-2.413-6.762-7.036-5.811-13.454
	c0.277-1.873,0.939-3.503,1.675-4.869c0.924,0.855,1.675,1.884,2.565,2.774c6.164,6.164,14.21,10.723,25.756,11.57
	c-1.377-7.294,2.291-12.65,6.805-15.182c2.457-1.377,6.018-2.099,9.424-1.414c3.102,0.625,5.478,2.19,7.328,4.031
	c3.392-0.622,6.134-1.893,8.742-3.297c-1.152,3.349-3.135,5.869-5.968,7.538c2.845-0.244,5.465-1.166,7.801-2.094
	C81.685,32.016,79.333,34.34,76.672,36.356z"/>
</svg>
