<?xml version="1.0" encoding="utf-8"?>
<!-- Generator: Adobe Illustrator 15.0.0, SVG Export Plug-In . SVG Version: 6.00 Build 0)  -->
<!DOCTYPE svg PUBLIC "-//W3C//DTD SVG 1.1//EN" "http://www.w3.org/Graphics/SVG/1.1/DTD/svg11.dtd">
<svg version="1.1" id="Facebook" xmlns="http://www.w3.org/2000/svg" xmlns:xlink="http://www.w3.org/1999/xlink" x="0px" y="0px"
	 width="100px" height="100px" viewBox="0 0 100 100" enable-background="new 0 0 100 100" xml:space="preserve">
<path fill-rule="evenodd" clip-rule="evenodd" d="M50,0C22.386,0,0,22.386,0,50c0,27.614,22.386,50,50,50s50-22.386,50-50
	C100,22.386,77.614,0,50,0z M56.953,36.94c3.542,0.037,7.23-0.073,10.683,0.055c-0.116,3.683-0.027,7.57-0.056,11.34
	c-3.542,0-7.085,0-10.627,0c0,11.668,0,23.337,0,35.005c-4.985,0-9.971,0-14.956,0c0-11.65,0-23.3,0-34.95
	c-3.104-0.128-6.446-0.019-9.642-0.055c0-3.798,0-7.596,0-11.395c3.177,0,6.355,0,9.532,0c0.141-2.987-0.044-5.674,0.165-8.107
	c0.202-2.354,0.991-4.37,2.136-6.081c2.175-3.248,5.8-5.795,10.683-6.025c4.037-0.191,8.545,0.097,12.765,0.055
	c-0.037,3.78,0.072,7.706-0.056,11.395c-2.13,0.122-4.273-0.163-6.135,0c-1.897,0.165-3.271,1.337-3.945,2.739
	C56.747,32.482,56.971,34.558,56.953,36.94z"/>
</svg>
