<?xml version="1.0" encoding="utf-8"?>
<!-- Generator: Adobe Illustrator 19.2.1, SVG Export Plug-In . SVG Version: 6.00 Build 0)  -->
<svg version="1.1" id="Vrstva_1" xmlns="http://www.w3.org/2000/svg" xmlns:xlink="http://www.w3.org/1999/xlink" x="0px" y="0px"
	 width="286.3px" height="36.4px" viewBox="0 0 286.3 36.4" style="enable-background:new 0 0 286.3 36.4;" xml:space="preserve">
<g>
	<g>
		<path d="M275.1,0.7c2.3,0.1,2.8,0.9,2.8,8c0,6.7,3.6,8.6,7.4,9.4c-3.8,0.8-7.4,2.7-7.4,9.4c0,7.4-0.5,8.1-2.8,8.1v0.7
			c6,0,8.2-1.9,8.2-8.8c0-7,0.6-8.9,2.9-9.1h0.2v-0.7h-0.2c-2.3-0.1-2.9-2.1-2.9-9.1c0-6.6-2.1-8.7-8.2-8.7V0.7z M264,28.8l9.4-19
			c-2.5,0.1-5.2,0.2-7.8,0.2c-2.4,0-4.9,0-7.2-0.2c0.1,1.6,0.1,3.8,0.1,7.4h0.8c0.4-5.1,2.8-6.7,5.8-6.7h2.1l-9.4,19
			c2.5-0.1,5.2-0.2,7.8-0.2c2.4,0,4.9,0,7.2,0.1c-0.1-1.6-0.1-3.8-0.1-7.4h-0.8c-0.4,5.1-3.1,6.7-6,6.7H264z M248.8,9.4
			c-5.3,0-9.3,3.6-9.3,10.3c0,7,3.8,10.1,8.7,10.1c4.3,0,6.6-3.1,7.5-5.9l-0.7-0.2c-1.5,2.5-3.5,3.1-4.9,3.1c-2.5,0-5-1.7-5-7.6
			c0-5.1,1.6-8.9,4.7-8.9c1,0,1.9,0.4,2.3,0.9c-1.3,0.4-2.5,1.5-2.5,3.1c0,1.7,1.1,2.8,2.9,2.8c1.7,0,3-1.2,3-3
			c0-1.5-0.8-2.7-2.1-3.5C252.4,9.9,250.7,9.4,248.8,9.4z M233.1,24.1c-2,0-3.2,1.1-3.2,2.9c0,1.8,1.2,2.9,3.2,2.9s3.2-1.1,3.2-2.9
			C236.3,25.2,235,24.1,233.1,24.1z M224.9,9.5c-1.6,0.4-3.4,0.5-5.5,0.5c-0.8,0-1.5-0.1-2.3-0.1v0.8c1.8,0,2.4,1.1,2.4,3.3v11.8
			c0,2.1-0.7,2.7-2.4,2.7v0.8c1,0,3.2-0.1,5.2-0.1c2,0,4.1,0.1,5,0.1v-0.8c-1.8,0-2.4-0.6-2.4-2.7V9.5z M221.9,0.3
			c-2.1,0-3.4,1.1-3.4,2.9c0,1.8,1.3,2.9,3.4,2.9c2.1,0,3.4-1.1,3.4-2.9C225.4,1.4,224,0.3,221.9,0.3z M211.5,10V3.8
			c-1.6,0.8-3.3,1.2-5.4,1.2v5H203v0.8h3.1v12.7c0,2.6,0.3,4.1,1.4,5.2c0.8,0.8,2.1,1.3,3.8,1.3c2.8,0,4.3-1.6,5.1-3.8l-0.6-0.3
			c-0.7,1.7-1.6,2.3-2.6,2.3c-1.1,0-1.6-0.5-1.6-2.1V10.7h4.4V10H211.5z M194,9.4c-3.4,0-6.4,1.8-6.4,5.2c0,3,2.3,4.7,4.7,6.6
			c2.2,1.7,3.8,2.9,3.8,5.1c0,1.9-1.3,2.7-2.6,2.7c-3.1,0-4.6-2.8-5.1-6.9h-0.8c0,3.8,0,5.9-0.1,7.5h0.8c0.2-0.8,0.5-1.3,0.9-1.3
			l0.2,0c0.5,0.2,1.1,0.4,1.7,0.8c0.8,0.5,2,0.8,3.5,0.8c3.9,0,7.1-2.1,7.1-5.6c0-3-2-4.6-4.5-6.4c-2.3-1.7-4.6-3-4.6-5.2
			c0-1.5,1.1-2.4,2.5-2.4c3.2,0,4.4,3,4.8,5.8h0.8c0-3.3,0-5.2,0.2-6.6H200c-0.1,0.9-0.4,1.4-0.9,1.4c-0.2,0-0.4-0.1-0.7-0.3
			C197.7,10.1,196.1,9.4,194,9.4z M182.6,9.5c-1.6,0.4-3.4,0.5-5.5,0.5c-0.8,0-1.5-0.1-2.3-0.1v0.8c1.8,0,2.4,1.1,2.4,3.3v11.8
			c0,2.1-0.7,2.7-2.4,2.7v0.8c1,0,3.2-0.1,5.2-0.1c2,0,4.1,0.1,5,0.1v-0.8c-1.8,0-2.4-0.6-2.4-2.7V9.5z M179.6,0.3
			c-2.1,0-3.4,1.1-3.4,2.9c0,1.8,1.3,2.9,3.4,2.9c2.1,0,3.4-1.1,3.4-2.9C183,1.4,181.7,0.3,179.6,0.3z M162.1,28.3
			c-2.2,0-3.6-2.2-3.5-8.6c0-6.2,1.5-9.1,4.1-9.1c1.1,0,2.1,0.4,2.7,1.3v13.3C165,27.1,163.6,28.3,162.1,28.3z M170.8,0
			c-1.6,0.4-3.4,0.5-5.5,0.5c-0.8,0-1.5,0-2.3-0.1v0.8c1.8,0,2.4,1.1,2.4,3.3v6.3c-1-1-2.4-1.4-4.1-1.4c-4.8,0-8.4,3.4-8.4,10.1
			c0,7.1,3.2,10.3,7.7,10.3c2.4,0,4-1.2,4.9-3.3v3.2c1.6-0.4,3.4-0.5,5.5-0.5c0.8,0,1.5,0,2.3,0.1v-0.8c-1.8,0-2.4-1.1-2.4-3.3V0z
			 M143.3,9.4c-2.6,0-4.9,1-6.1,3.5V9.5c-1.6,0.4-3.4,0.5-5.5,0.5c-0.8,0-1.5-0.1-2.3-0.1v0.8c1.8,0,2.4,1.1,2.4,3.3v11.8
			c0,2.1-0.7,2.7-2.4,2.7v0.8c1,0,3.2-0.1,5.2-0.1c1.8,0,3.8,0.1,4.7,0.1v-0.8c-1.5,0-2-0.6-2-2.7V15.4c0-2.5,1.6-4.3,3.7-4.3
			c1.9,0,2.3,1.3,2.3,3.1v11.7c0,2.1-0.5,2.7-2,2.7v0.8c0.9,0,2.9-0.1,4.9-0.1c1.8,0,4,0.1,4.9,0.1v-0.8c-1.7,0-2.4-0.6-2.4-2.7
			V15.8c0-2.5-0.3-3.9-1.2-4.9C146.6,10,145.4,9.4,143.3,9.4z M120.1,10.2c1.8,0,2.6,3.1,2.5,6.8h-5.9
			C117.1,12.2,118.4,10.2,120.1,10.2z M121.7,26.8c-2.4,0-4.9-2-4.9-7.3c0-0.6,0-1.2,0.1-1.8h10.5c0-5.9-2.7-8.3-7-8.3
			c-5.3,0-9.2,3.5-9.2,10.4c0,6.8,3.6,10,8.6,10c4.2,0,6.6-3,7.5-5.8l-0.7-0.3C125.1,26.3,123.2,26.8,121.7,26.8z M105.2,10V3.8
			c-1.6,0.8-3.3,1.2-5.4,1.2v5h-3.1v0.8h3.1v12.7c0,2.6,0.3,4.1,1.4,5.2c0.8,0.8,2.1,1.3,3.8,1.3c2.8,0,4.3-1.6,5.1-3.8l-0.6-0.3
			c-0.7,1.7-1.6,2.3-2.6,2.3c-1.1,0-1.6-0.5-1.6-2.1V10.7h4.4V10H105.2z M88.5,9.4c-2.6,0-4.9,1-6.1,3.5V9.5
			c-1.6,0.4-3.4,0.5-5.5,0.5c-0.8,0-1.5-0.1-2.3-0.1v0.8c1.8,0,2.4,1.1,2.4,3.3v11.8c0,2.1-0.7,2.7-2.4,2.7v0.8c1,0,3.2-0.1,5.2-0.1
			c1.8,0,3.8,0.1,4.7,0.1v-0.8c-1.5,0-2-0.6-2-2.7V15.4c0-2.5,1.6-4.3,3.7-4.3c1.9,0,2.3,1.3,2.3,3.1v11.7c0,2.1-0.5,2.7-2,2.7v0.8
			c0.9,0,2.9-0.1,4.9-0.1c1.8,0,4,0.1,4.9,0.1v-0.8c-1.7,0-2.4-0.6-2.4-2.7V15.8c0-2.5-0.3-3.9-1.2-4.9C91.9,10,90.7,9.4,88.5,9.4z
			 M63.1,10.2c2.1,0,3.5,2.8,3.5,9.5c0,6.7-1.5,9.5-3.5,9.5c-2,0-3.5-2.7-3.5-9.5C59.6,13,61,10.2,63.1,10.2z M63.1,9.4
			c-5.4,0-9.2,2.8-9.2,10.2c0,7.4,3.8,10.2,9.2,10.2c5.4,0,9.2-2.8,9.2-10.2C72.3,12.2,68.5,9.4,63.1,9.4z M49.3,9.4
			c-2.4,0-4.2,1.6-5.1,3.6V9.5c-1.6,0.4-3.4,0.5-5.5,0.5c-0.8,0-1.5-0.1-2.3-0.1v0.8c1.8,0,2.4,1.1,2.4,3.3v11.8
			c0,2.1-0.7,2.7-2.4,2.7v0.8c1,0,3.3-0.1,5.4-0.1c2.4,0,4.8,0.1,6,0.1v-0.8c-2.4,0-3.5-0.7-3.5-3.1v-9.9c0-2,1.4-4.5,3.4-4.8
			c0.2-0.1,0.4-0.1,0.5-0.1c0.2,0,0.3,0,0.5,0.1c-0.9,0.6-1.6,1.5-1.6,2.9c0,1.5,1,2.4,2.8,2.4s2.9-1.3,2.9-3.1
			C52.7,11.2,51.7,9.4,49.3,9.4z M34.6,2.8c-2.3,0.1-5.5,0.1-7.8,0.1c-2.5,0-8.1,0-12.2-0.1v0.8c2.4,0.1,2.8,0.5,2.8,3.2v18.6
			c0,2.7-0.4,3.1-2.8,3.2v0.8c1.6-0.1,3.8-0.1,6-0.1c2.7,0,5.3,0.1,6.8,0.1v-0.8c-3.3,0-4-0.4-4-3.4v-8.6h1.3c3,0,4.2,2.3,4.6,4.9
			h0.9c-0.2-2.9-0.2-4.1-0.2-5.3c0-0.5,0-1,0-1.7c0-0.9,0-2,0.1-3.6h-0.9c-0.4,2-1.4,5-4.4,5h-1.3V6.3c0-2.3,0.4-2.7,2.6-2.7h1.2
			c3.5,0,5.5,1.9,6.4,7.7h0.9c-0.1-0.7-0.1-1.7-0.1-2.9S34.4,5.1,34.6,2.8z M11.2,0C5.2,0,3,2.1,3,8.7c0,7-0.6,9-2.9,9.1H0v0.7h0.2
			C2.5,18.7,3,20.6,3,27.6c0,6.9,2.1,8.8,8.2,8.8v-0.7c-2.3,0-2.8-0.7-2.8-8.1c0-6.7-3.6-8.6-7.4-9.4c3.8-0.8,7.4-2.7,7.4-9.4
			c0-7.1,0.5-7.9,2.8-8V0z"/>
	</g>
</g>
<g>
</g>
<g>
</g>
<g>
</g>
<g>
</g>
<g>
</g>
<g>
</g>
</svg>
