<?xml version="1.0" encoding="utf-8"?>
<!-- Generator: Adobe Illustrator 19.2.1, SVG Export Plug-In . SVG Version: 6.00 Build 0)  -->
<svg version="1.1" id="Vrstva_1" xmlns="http://www.w3.org/2000/svg" xmlns:xlink="http://www.w3.org/1999/xlink" x="0px" y="0px"
	 width="30px" height="30px" viewBox="0 0 30 30" style="enable-background:new 0 0 30 30;" xml:space="preserve">
<style type="text/css">
	.st0{fill:#010101;}
	.st1{fill:#FFFFFF;}
</style>
<g>
	<circle class="st0" cx="15" cy="15" r="15"/>
	<path class="st1" d="M18.2,15c0-0.2-0.1-0.4-0.3-0.5l-4.3-2.7c-0.2-0.1-0.4-0.1-0.5,0c-0.2,0.1-0.3,0.3-0.3,0.5v5.4
		c0,0.2,0.1,0.4,0.3,0.5c0.1,0,0.2,0.1,0.3,0.1c0.1,0,0.2,0,0.3-0.1l4.3-2.7C18.1,15.4,18.2,15.2,18.2,15z M22.5,15c0,0.5,0,1,0,1.3
		c0,0.3,0,0.7-0.1,1.1c0,0.5-0.1,0.9-0.2,1.2c-0.1,0.4-0.3,0.8-0.6,1s-0.6,0.4-1,0.5c-1.2,0.1-3.1,0.2-5.6,0.2s-4.4-0.1-5.6-0.2
		c-0.4,0-0.7-0.2-1-0.5c-0.3-0.3-0.5-0.6-0.6-1c-0.1-0.4-0.1-0.8-0.2-1.2c0-0.5-0.1-0.8-0.1-1.1c0-0.3,0-0.7,0-1.3s0-1,0-1.3
		c0-0.3,0-0.7,0.1-1.1c0-0.5,0.1-0.9,0.2-1.2c0.1-0.4,0.3-0.8,0.6-1c0.3-0.3,0.6-0.4,1-0.5c1.2-0.1,3.1-0.2,5.6-0.2s4.4,0.1,5.6,0.2
		c0.4,0,0.7,0.2,1,0.5c0.3,0.3,0.5,0.6,0.6,1c0.1,0.4,0.1,0.8,0.2,1.2c0,0.5,0.1,0.8,0.1,1.1C22.5,14,22.5,14.5,22.5,15z"/>
</g>
<g>
</g>
<g>
</g>
<g>
</g>
<g>
</g>
<g>
</g>
<g>
</g>
</svg>
