<?xml version="1.0" encoding="utf-8"?>
<!-- Generator: Adobe Illustrator 19.2.1, SVG Export Plug-In . SVG Version: 6.00 Build 0)  -->
<svg version="1.1" id="Vrstva_1" xmlns="http://www.w3.org/2000/svg" xmlns:xlink="http://www.w3.org/1999/xlink" x="0px" y="0px"
	 width="30px" height="30px" viewBox="0 0 30 30" style="enable-background:new 0 0 30 30;" xml:space="preserve">
<style type="text/css">
	.st0{fill:#010101;}
	.st1{fill:#FFFFFF;}
</style>
<g>
	<circle class="st0" cx="15" cy="15" r="15"/>
	<path class="st1" d="M22.5,10.4c-0.4,0.6-0.9,1.2-1.5,1.6c0,0.1,0,0.2,0,0.4c0,0.8-0.1,1.6-0.4,2.5s-0.6,1.6-1.1,2.4
		c-0.5,0.8-1.1,1.4-1.8,2s-1.5,1-2.5,1.4c-1,0.3-2,0.5-3.1,0.5c-1.7,0-3.3-0.5-4.7-1.4c0.2,0,0.5,0,0.7,0c1.4,0,2.7-0.4,3.8-1.3
		c-0.7,0-1.3-0.2-1.8-0.6c-0.5-0.4-0.9-0.9-1.1-1.5c0.2,0,0.4,0,0.6,0c0.3,0,0.5,0,0.8-0.1c-0.7-0.1-1.3-0.5-1.8-1.1s-0.7-1.2-0.7-2
		v0c0.4,0.2,0.9,0.4,1.4,0.4c-0.4-0.3-0.8-0.6-1-1.1C8.3,12,8.1,11.5,8.1,11c0-0.6,0.1-1.1,0.4-1.6c0.8,0.9,1.7,1.7,2.8,2.3
		c1.1,0.6,2.3,0.9,3.5,0.9c-0.1-0.2-0.1-0.5-0.1-0.7c0-0.9,0.3-1.6,0.9-2.2c0.6-0.6,1.3-0.9,2.2-0.9c0.9,0,1.6,0.3,2.2,1
		c0.7-0.1,1.3-0.4,2-0.7c-0.2,0.7-0.7,1.3-1.4,1.7C21.3,10.8,21.9,10.6,22.5,10.4z"/>
</g>
<g>
</g>
<g>
</g>
<g>
</g>
<g>
</g>
<g>
</g>
<g>
</g>
</svg>
