<svg id="Vrstva_1" data-name="Vrstva 1" xmlns="http://www.w3.org/2000/svg" viewBox="0 0 150 150"><title>avatar</title><rect width="150" height="150" fill="#e6e6e6"/><path d="M45.59,76.32c4.22,13.83,15.06,28.21,29.68,28.21s25.48-14.37,29.68-28.21c3.61-1.25,6.62-4.86,7.8-9.52,1.62-6.4-.76-12.34-5.37-14.13a21.77,21.77,0,0,0,.64-5.22C108,32.26,92.88,20,74.22,20S40.37,32.29,40.37,47.45a23.26,23.26,0,0,0,.91,6.28c-3.34,2.53-4.86,7.63-3.48,13.1C39,71.46,42,75.07,45.59,76.32ZM43.33,58.68a3.27,3.27,0,0,1,1.94-1.57,3.34,3.34,0,0,1,.52,0,2.38,2.38,0,0,1,.42,0l2.33.22L48.88,55a36.38,36.38,0,0,1,4.32-12.8C57.14,46.64,65,49.65,74,49.65c10.23,0,18.94-3.85,22.15-9.25A35.62,35.62,0,0,1,101.64,55l.34,2.31,2.33-.22a3.84,3.84,0,0,1,.93,0c.17,0,.27.15.44.2,2.11.93,3.19,4.64,2.28,8.32s-3.38,6-5.32,6.21L101,72l-.44,1.57c-3.53,12.9-13.34,26-25.36,26s-21.83-13.07-25.31-26L49.47,72l-1.62-.22c-1.94-.25-4.39-2.5-5.32-6.21A9.43,9.43,0,0,1,43.33,58.68Z" fill="#2b2b2b"/><path d="M104.09,93.44c-3.14,5.35-6.77,9.88-11.6,12.31-9.93,5.08-17.32,9.2-17.32,9.2l0,0v-.12l-.12,0-.12,0v.12l0,0s-7.38-4.1-17.32-9.2c-4.81-2.48-8.44-7-11.6-12.31-14.69,6-25,19.72-25,31.69V150H129V125.13C129.06,113.16,118.78,99.42,104.09,93.44Z" fill="#2b2b2b"/></svg>