<?xml version="1.0" encoding="utf-8"?>
<!DOCTYPE svg PUBLIC "-//W3C//DTD SVG 1.1//EN" "http://www.w3.org/Graphics/SVG/1.1/DTD/svg11.dtd">
<svg version="1.1" xmlns="http://www.w3.org/2000/svg" xmlns:xlink="http://www.w3.org/1999/xlink" x="0px" y="0px"
	 viewBox="0 0 140.8 55.6" enable-background="new 0 0 140.8 55.6" xml:space="preserve">
<g id="Vrstva_1" display="none">
	<rect y="-129.5" display="inline" fill="#19325A" width="212.6" height="113.4"/>
	<g display="inline">
		<rect x="37.8" y="-102.6" fill="#FF9900" width="6.1" height="6.1"/>
		<path fill="#FF9900" d="M175-56.4v-32.7c0-1.4-1.2-2.5-2.8-2.5h-35.7c-1.5,0-2.8,1.1-2.8,2.5V-60h6.1v6.1h32.3
			C173.8-53.9,175-55,175-56.4z M153.2-74.7h-3.5v-3.6c0-0.8-0.7-1-0.9-1h-3c-0.3,0-0.9,0.2-0.9,1v11.1c0,0.7,0.5,1,0.9,1h3
			c0.4,0,0.9-0.3,0.9-1v-4h3.5v4c0,4.5-3,4.5-4.4,4.5h-4.3l-0.1-0.1c-2-0.3-3-1.8-3-4.4v-11.1c0-3.5,1.9-4.3,3-4.5l0.2,0v0l0.2,0
			h4.1c3,0,4.4,1.4,4.4,4.5V-74.7z M167.5-79.4l-7.3,13.1h7.3v3.5h-11.8V-66l7.4-13.4h-7.4v-3.5h11.9V-79.4z"/>
		<g>
			<path fill="#19325A" d="M93-91.7h-8v-10.9h-6.1v48.7h6.1h8c3.7,0,8.2-0.6,8.2-8.2v-21.2C101.1-90.7,96.7-91.7,93-91.7z M95-62.1
				c0,1.9-1.6,2.1-2.1,2.1h-8v-25.6h8c0.5,0,2.1,0.4,2.1,2.3V-62.1z"/>
			<path fill="#19325A" d="M64.3-91.7h-5.9c-3.7,0-8.2,1-8.2,8.4v21.2c0,7.6,4.5,8.2,8.2,8.2h5.9c3.7,0,8.2-0.6,8.2-8.2v-21.2
				C72.5-90.7,68-91.7,64.3-91.7z M66.4-62.1c0,1.9-1.6,2.1-2.1,2.1h-5.9c-0.5,0-2.1-0.2-2.1-2.1v-21.2c0-1.9,1.6-2.3,2.1-2.3h5.9
				c0.5,0,2.1,0.4,2.1,2.3V-62.1z"/>
			<path fill="#19325A" d="M127.4-79.9v-3.4c0-7.3-4.5-8.4-8.2-8.4h-4.4c-3.7,0-8.2,1-8.2,8.4v2.9v2.2c0,0.9,0.4,3.6,4.5,5.3
				l8.3,2.6c0,0,1.8,0.5,1.8,2.9v5.3c0,1.9-1.6,2.1-2.1,2.1h-4.4c-0.5,0-2.1-0.2-2.1-2.1v-3.9h-6.1v3.9c0,7.6,4.5,8.2,8.2,8.2h4.4
				c3.7,0,8.2-0.6,8.2-8.2v-5.3v-1.7c0-2.3-0.9-4.6-5.4-6.3c-4.5-1.7-8-2.6-8.4-2.8c-0.4-0.3-0.8-0.8-0.8-2.2v-2.9
				c0-1.9,1.6-2.3,2.1-2.3h4.4c0.5,0,2.1,0.4,2.1,2.3v3.4H127.4z"/>
			<path fill="#19325A" d="M37.8-58.2c0,4.6-3.6,7.9-3.6,7.9l3.3,3.3c0,0,6.4-4,6.4-11.2v-33.5h-6.1V-58.2z"/>
		</g>
	</g>
	<rect x="111.1" y="-219.1" display="inline" fill="#FF9900" width="6.1" height="6.1"/>
	<path display="inline" fill="#FF9900" d="M248.3-173v-32.7c0-1.4-1.2-2.5-2.8-2.5h-35.7c-1.5,0-2.8,1.1-2.8,2.5v29.2h6.1v6.1h32.3
		C247-170.5,248.3-171.6,248.3-173z M226.5-191.2H223v-3.6c0-0.8-0.7-1-0.9-1h-3c-0.3,0-0.9,0.2-0.9,1v11.1c0,0.7,0.5,1,0.9,1h3
		c0.4,0,0.9-0.3,0.9-1v-4h3.5v4c0,4.5-3,4.5-4.4,4.5h-4.3l-0.1-0.1c-2-0.3-3-1.8-3-4.4v-11.1c0-3.5,1.9-4.3,3-4.5l0.2,0v0l0.2,0h4.1
		c3,0,4.4,1.4,4.4,4.5V-191.2z M240.8-196l-7.3,13.1h7.3v3.5h-11.8v-3.2l7.4-13.4h-7.4v-3.5h11.9V-196z"/>
	<g display="inline">
		<path fill="#19325A" d="M166.2-208.3h-8v-10.9h-6.1v48.7h6.1h8c3.7,0,8.2-0.6,8.2-8.2v-21.2C174.4-207.2,169.9-208.3,166.2-208.3z
			 M168.3-178.7c0,1.9-1.6,2.1-2.1,2.1h-8v-25.6h8c0.5,0,2.1,0.4,2.1,2.3V-178.7z"/>
		<path fill="#19325A" d="M137.6-208.3h-5.9c-3.7,0-8.2,1-8.2,8.4v21.2c0,7.6,4.5,8.2,8.2,8.2h5.9c3.7,0,8.2-0.6,8.2-8.2v-21.2
			C145.8-207.2,141.3-208.3,137.6-208.3z M139.7-178.7c0,1.9-1.6,2.1-2.1,2.1h-5.9c-0.5,0-2.1-0.2-2.1-2.1v-21.2
			c0-1.9,1.6-2.3,2.1-2.3h5.9c0.5,0,2.1,0.4,2.1,2.3V-178.7z"/>
		<path fill="#19325A" d="M200.6-196.5v-3.4c0-7.3-4.5-8.4-8.2-8.4h-4.4c-3.7,0-8.2,1-8.2,8.4v2.9v2.2c0,0.9,0.4,3.6,4.5,5.3
			l8.3,2.6c0,0,1.8,0.5,1.8,2.9v5.3c0,1.9-1.6,2.1-2.1,2.1h-4.4c-0.5,0-2.1-0.2-2.1-2.1v-3.9H180v3.9c0,7.6,4.5,8.2,8.2,8.2h4.4
			c3.7,0,8.2-0.6,8.2-8.2v-5.3v-1.7c0-2.3-0.9-4.6-5.4-6.3c-4.5-1.7-8-2.6-8.4-2.8c-0.4-0.3-0.8-0.8-0.8-2.2v-2.9
			c0-1.9,1.6-2.3,2.1-2.3h4.4c0.5,0,2.1,0.4,2.1,2.3v3.4H200.6z"/>
		<path fill="#19325A" d="M111.1-174.7c0,4.6-3.6,7.9-3.6,7.9l3.3,3.3c0,0,6.4-4,6.4-11.2v-33.5h-6.1V-174.7z"/>
	</g>
</g>
<g id="Layer_2">
	<g>
		<rect x="3.6" y="0" fill="#FF9900" width="6.1" height="6.1"/>
		<path fill="#FF9900" d="M140.8,46.1V13.4c0-1.4-1.2-2.5-2.8-2.5h-35.7c-1.5,0-2.8,1.1-2.8,2.5v29.2h6.1v6.1h32.3
			C139.6,48.7,140.8,47.5,140.8,46.1z M119,27.9h-3.5v-3.6c0-0.8-0.7-1-0.9-1h-3c-0.3,0-0.9,0.2-0.9,1v11.1c0,0.7,0.5,1,0.9,1h3
			c0.4,0,0.9-0.3,0.9-1v-4h3.5v4c0,4.5-3,4.5-4.4,4.5h-4.3l-0.1-0.1c-2-0.3-3-1.8-3-4.4V24.3c0-3.5,1.9-4.3,3-4.5l0.2,0v0l0.2,0h4.1
			c3,0,4.4,1.4,4.4,4.5V27.9z M133.3,23.1L126,36.3h7.3v3.5h-11.8v-3.2l7.4-13.4h-7.4v-3.5h11.9V23.1z"/>
		<g>
			<path fill="#19325A" d="M58.8,10.9h-8V0h-6.1v48.7h6.1h8c3.7,0,8.2-0.6,8.2-8.2V19.2C66.9,11.9,62.5,10.9,58.8,10.9z M60.9,40.4
				c0,1.9-1.6,2.1-2.1,2.1h-8V17h8c0.5,0,2.1,0.4,2.1,2.3V40.4z"/>
			<path fill="#19325A" d="M30.2,10.9h-5.9c-3.7,0-8.2,1-8.2,8.4v21.2c0,7.6,4.5,8.2,8.2,8.2h5.9c3.7,0,8.2-0.6,8.2-8.2V19.2
				C38.3,11.9,33.9,10.9,30.2,10.9z M32.3,40.4c0,1.9-1.6,2.1-2.1,2.1h-5.9c-0.5,0-2.1-0.2-2.1-2.1V19.2c0-1.9,1.6-2.3,2.1-2.3h5.9
				c0.5,0,2.1,0.4,2.1,2.3V40.4z"/>
			<path fill="#19325A" d="M93.2,22.7v-3.4c0-7.3-4.5-8.4-8.2-8.4h-4.4c-3.7,0-8.2,1-8.2,8.4v2.9v2.2c0,0.9,0.4,3.6,4.5,5.3l8.3,2.6
				c0,0,1.8,0.5,1.8,2.9v5.3c0,1.9-1.6,2.1-2.1,2.1h-4.4c-0.5,0-2.1-0.2-2.1-2.1v-3.9h-6.1v3.9c0,7.6,4.5,8.2,8.2,8.2h4.4
				c3.7,0,8.2-0.6,8.2-8.2v-5.3v-1.7c0-2.3-0.9-4.6-5.4-6.3c-4.5-1.7-8-2.6-8.4-2.8c-0.4-0.3-0.8-0.8-0.8-2.2v-2.9
				c0-1.9,1.6-2.3,2.1-2.3h4.4c0.5,0,2.1,0.4,2.1,2.3v3.4H93.2z"/>
			<path fill="#19325A" d="M3.6,44.4C3.6,49,0,52.3,0,52.3l3.3,3.3c0,0,6.4-4,6.4-11.2V10.9H3.6V44.4z"/>
		</g>
	</g>
</g>
</svg>
